<?xml version="1.0" encoding="utf-8"?>
<!-- Generator: Adobe Illustrator 27.7.0, SVG Export Plug-In . SVG Version: 6.00 Build 0)  -->
<svg version="1.1" id="Capa_1" xmlns="http://www.w3.org/2000/svg" xmlns:xlink="http://www.w3.org/1999/xlink" x="0px" y="0px"
	 viewBox="0 0 97 26" style="enable-background:new 0 0 97 26;" xml:space="preserve">
<path d="M33.2,4.4h-2.4v17.2h15.4v-1.9H33.2V4.4z"/>
<path d="M51,4.4h-2.4v17.2H51V4.4z"/>
<path d="M54.1,4.4v17.2h2.4V7.1l14.4,14.6h2.6V4.4h-2.4V19L56.7,4.4H54.1z"/>
<path d="M88.3,10.3l7-5.9h-3.2L79,15.6V4.4h-2.4v17.2H79v-3.7l7.5-6.3l6.7,9.9H96L88.3,10.3z"/>
<path d="M23.8,25.8v-1.2h-9.9c-2.2,0-4.3-0.8-5.8-2.1c1.7,2,3.5,3.2,6.9,3.2H23.8z"/>
<path d="M23.8,23.4v-1.2H12.3c-2.2,0-4.4-0.8-5.9-2.1c1.6,2,3.4,3.2,6.7,3.2L23.8,23.4L23.8,23.4z"/>
<path d="M23.8,21v-1.2H10.6c-2.2,0-4.1-0.8-5.7-2.1c1.6,2,3.4,3.2,6.7,3.2L23.8,21L23.8,21z"/>
<path d="M8.3,17.5V0.2H7.1v15.1c0,0.6,0,1.4,0.1,1.9c-0.3-0.1-0.6-0.1-1-0.2c-0.3-0.8-0.4-1.9-0.4-2.8v-14H4.7v12.9
	c0,1.2,0.3,2.6,0.7,3.6c-0.3-0.1-0.5-0.3-0.8-0.4c-0.7-1.3-1.1-2.8-1.1-4.4V0.2H2.3v10.6c0,1.8,0.6,3.6,1.5,5
	c-1.4-1.3-2.1-2.7-2.4-3.9c-0.2-0.7-0.3-1.5-0.3-2.2V0.2H0v8.3c0,1,0.1,1.9,0.4,2.8C1.2,13.8,3,15.8,5,17.1c1.4,1,3,1.5,4.8,1.6
	h13.9v-1.2L8.3,17.5z"/>
</svg>
